<?xml version="1.0" encoding="utf-8" ?><svg xmlns="http://www.w3.org/2000/svg" xmlns:xlink="http://www.w3.org/1999/xlink" width="1024" height="1024" viewBox="0 0 1024 1024"><path fill="#0F0A33" d="M525.113 233.328C533.78 230.06 543.308 226.825 552.336 224.098C612.124 206.039 672.694 171.217 735.746 198.639C754.054 206.601 762.441 218.042 773.119 233.31C804.819 242.106 820.407 265.457 819.4 297.732C819.204 304.015 819.381 310.466 819.149 316.787C809.498 304.393 799.704 296.498 783.506 294.548C771.516 293.083 759.443 296.524 750.027 304.092C738.379 313.368 733.157 324.494 731.19 339.193C727.386 360.741 739.796 375.89 744.792 395.302C755.311 436.172 748.364 482.047 724.392 517.231C702.406 549.497 666.934 574.087 628.803 582.234L549.507 676.336C542.814 684.221 536.169 692.146 529.571 700.11C526.788 703.472 520.961 710.93 518.115 713.495C504.08 713.688 489.913 713.644 475.874 713.553C443.249 713.341 410.524 713.905 377.91 713.507C386.762 699.794 395.715 686.146 404.768 672.564C411.803 662.132 423.854 644.622 429.332 633.859C417.246 637.44 405.377 641.886 393.356 645.765L294.994 678.141L263.547 688.596C254.764 691.604 237.988 698.529 229.167 697.661C219.587 695.902 211.978 689.98 207.984 681.113C204.998 674.483 205.454 667.581 205.548 660.534L205.482 544.651L205.464 504.885C205.464 483.508 203.044 462.696 225.928 450.505C235.402 445.458 248.016 442.293 258.315 438.867L307.959 421.959L430 380.368C449.648 373.839 469.257 367.188 488.824 360.417C496.714 357.729 504.788 355.294 512.593 352.435C520.097 340.512 529.954 326.625 538.014 314.88C548.627 299.293 559.154 283.647 569.595 267.944C575.984 258.311 585.321 245.71 590.207 235.742C569.301 235.186 548.392 234.781 527.48 234.529L525.113 233.328Z"/><path fill="#D3A85A" d="M585.606 377.098C600.745 374.614 619.096 373.025 634.604 371.075C649.483 369.204 670.711 365.949 685.199 365.297C683.58 387.551 681.819 409.795 679.915 432.026C679.153 441.061 678.387 455.425 676.906 463.95C667.314 452.69 657.514 441.61 647.511 430.715C633.56 443.946 619.675 458.081 605.971 471.628L559.567 516.95C550.115 526.195 539.232 537.563 529.639 546.278C504.969 523.143 479.27 499.835 454.22 477.087C430.674 498.913 406.212 523.565 383.251 546.168L300.473 627.307L252.765 674.219C247.15 679.72 233.811 692.086 229.167 697.661C219.587 695.902 211.978 689.98 207.984 681.113C204.998 674.483 205.454 667.581 205.548 660.534C210.399 654.972 218.882 647.286 224.486 641.815L264.748 602.576L393.535 476.399L429.968 440.884C436.632 434.44 447.657 424.356 453.245 417.635C478.997 439.909 503.418 463.646 528.776 486.386C536.152 480.243 544.184 472.071 551.029 465.188C572.102 443.996 594.134 423.563 615.263 402.47C605.481 393.364 595.267 385.728 585.606 377.098Z"/><path fill="#2C2C4B" d="M435.233 830.179C438.439 829.953 442.217 830.098 445.482 830.152L445.595 870.955C445.636 878.554 445.969 887.584 445.552 895.016C443.018 895.043 435.638 895.769 434.436 893.877C434.575 892.556 434.761 891.942 434.397 890.677C432.611 891.049 429.561 893.661 427.052 894.539C420.271 896.913 414.617 896.093 408.325 893.278C395.298 885.203 391.708 867.906 401.491 856.045C405.546 851.195 411.421 848.23 417.732 847.85C424.145 847.415 429.53 849.5 434.317 853.696C434.541 849.941 434.014 831.846 435.233 830.179ZM423.75 885.572C428.725 884.626 432.796 881.058 434.386 876.251C435.976 871.443 434.835 866.151 431.405 862.426C427.975 858.701 422.795 857.128 417.873 858.317C410.516 860.093 405.919 867.413 407.514 874.812C409.11 882.21 416.315 886.985 423.75 885.572Z"/><path fill="#2C2C4B" d="M556.487 834.035C560.409 833.98 564.412 834.027 568.341 834.031C568.521 854.43 568.452 874.832 568.132 895.23C564.33 895.135 560.254 895.22 556.429 895.23C556.504 886.706 556.518 878.182 556.471 869.658C547.157 869.301 535.5 869.566 526.134 869.63C525.827 877.809 525.975 886.75 525.976 894.989L514.488 894.979C514.394 888.774 514.043 837.045 515.326 834.164C518.565 833.948 522.587 834.039 525.897 834.031L525.91 859.056C536.107 859.054 546.304 859.147 556.499 859.334C556.658 851.074 556.501 842.332 556.487 834.035Z"/><path fill="#2C2C4B" d="M704.506 848.216L708.35 848.23C702.161 863.742 697.205 879.528 691.298 895.066L681.101 895.039L669.248 863.176C664.437 873.493 661.449 884.74 656.969 895.271L646.945 895.25C643.134 883.856 638.717 872.372 634.459 861.114C632.905 856.949 631.31 852.829 630.032 848.569C633.85 848.388 636.848 848.424 640.678 848.541C643.166 857.041 648.934 873.48 652.133 881.753C656.71 871.07 659.985 859.679 664.574 848.968C667.718 848.611 670.703 848.729 673.865 848.758C678.367 859.543 681.467 869.902 686.514 881.6C688.356 873.928 695.488 856.383 698.83 848.783L704.506 848.216Z"/><path fill="#2C2C4B" d="M476.964 848.127C489.801 847.311 498.508 852.141 502.725 864.655C503.846 867.982 503.467 872.4 503.445 875.891L467.554 875.83C468.441 878.354 468.909 880.882 471.097 882.693C479.38 889.553 487.354 887.249 494.055 880.809C495.001 881.147 498.239 885.52 499.874 886.871L500.642 887.534C496.861 891.506 494.256 893.502 488.749 894.885C454.669 903.447 442.079 855.519 476.964 848.127ZM467.876 868.187C473.349 868.34 478.659 868.309 484.125 868.359C486.962 868.42 490.037 868.307 492.894 868.27C490.499 858.829 487.996 856.502 477.795 857C471.812 859.001 469.914 861.393 468.102 867.42L467.876 868.187Z"/><path fill="#2C2C4B" d="M359.47 848.157C384.237 846.175 387.036 858.977 385.864 879.219C385.571 884.273 386.006 890.202 385.945 895.374C382.629 895.224 379.31 895.168 375.991 895.207C375.533 894.094 375.098 892.972 374.724 891.828L374.492 891.148C365.772 897.034 356.363 898.177 347.391 891.896C345.616 889.865 343.766 887.571 343.509 884.754C341.728 865.204 361.818 868.066 374.58 868.025C374.455 865.834 374.673 862.812 373.017 861.01C369.236 856.715 359.601 857.314 354.743 859.023C349.522 860.86 349.595 864.224 346.611 855.225L345.951 853.205C350.744 850.433 353.972 849.26 359.47 848.157ZM367.617 887.398C373.751 884.218 374.256 882.001 374.589 875.558C369.412 875.347 366.027 875.274 360.796 875.559C348.578 878.797 352.776 889.446 367.617 887.398Z"/><path fill="#2C2C4B" d="M594.98 848.151C596.817 848.004 598.658 847.901 600.501 847.842C609.407 847.637 621.311 851.661 621.896 862.258C622.485 872.945 622.31 884.409 622.224 895.173C619.728 895.107 617.232 895.095 614.736 895.137C609.418 895.196 612.758 892.496 611.188 890.967C610.509 890.9 607.357 893.396 606.329 893.806C598.529 896.914 590.295 896.933 583.69 891.427C576.011 881.433 580.285 870.797 592.751 868.57C598.83 867.484 605.083 868.308 611.191 867.963C611.884 867.923 611.332 863.767 610.893 863.293C609.573 860.243 608.354 859.319 604.822 858.261C598.45 856.353 591.996 858.441 586.449 861.625C584.777 859.14 583.059 856.175 581.71 853.502C586.537 850.379 589.301 849.434 594.98 848.151ZM605.961 886.835C611.083 883.26 611.066 881.471 611.503 875.659C606.059 875.431 600.307 875.237 594.886 875.597C584.867 881.344 592.796 891.79 605.961 886.835Z"/><path fill="#2C2C4B" d="M716.298 830.2C720.21 830.045 723.157 830.132 727.082 830.316C727.501 842.692 726.711 856.228 727.53 868.48C734.692 862.566 742.244 855.043 749.084 848.572C753.758 848.399 757.997 848.461 762.656 848.545C757.743 854.158 748.788 862.298 743.075 868.156C747.004 873.718 751.676 879.345 755.961 884.699C758.81 888.143 761.82 891.585 764.189 895.363C759.572 895.244 754.952 895.261 750.336 895.414C744.947 888.832 740.793 881.886 734.745 875.422C732.645 877.587 729.807 880.018 727.527 882.072L727.46 895.04C723.714 894.99 719.805 895.063 716.044 895.076L716.298 830.2Z"/><path fill="#2C2C4B" d="M256.395 833.999L307.042 834.079C307.186 837.218 307.036 840.812 306.974 843.999L287.304 844.027L287.17 876.125L286.941 895.213C283.521 895.04 279.345 895.132 275.863 895.121L275.905 844.123C269.651 843.908 262.68 844.069 256.37 844.104C256.209 840.508 256.274 837.606 256.395 833.999Z"/><path fill="#2C2C4B" d="M337.966 847.705C338.039 851.568 338.138 854.573 338.399 858.404C329.436 859.679 322.731 861.717 322.513 872.375L322.519 895.019C318.817 894.994 315.115 894.995 311.413 895.019C310.92 881.528 311.395 861.913 311.499 848.131C313.149 848.124 320.092 847.942 321.763 848.828C322.47 849.203 322.038 852.466 322.592 853.412C323.206 853.675 325.944 850.917 327.488 850.241C331.286 848.58 333.97 848.271 337.966 847.705Z"/><path fill="#2C2C4B" fill-opacity="0.89019608" d="M525.113 233.328L527.48 234.529C527.077 234.522 523.61 234.774 523.691 234.054C523.994 233.628 524.635 233.492 525.113 233.328Z"/></svg>